<svg xmlns="http://www.w3.org/2000/svg" width="128" height="128" viewBox="0 0 128 128">
  <defs>
    <linearGradient id="g" x1="0" y1="0" x2="1" y2="1">
      <stop offset="0" stop-color="#FF9900"/>
      <stop offset="1" stop-color="#232F3E"/>
    </linearGradient>
  </defs>
  <rect rx="16" width="128" height="128" fill="url(#g)"/>
  <g fill="#fff">
    <path d="M64 22a42 42 0 1 0 0 84 42 42 0 0 0 0-84zm0 6a36 36 0 1 1 0 72 36 36 0 0 1 0-72z" opacity=".9"/>
    <path d="M64 34a4 4 0 0 1 4 4v24l16 10a4 4 0 1 1-4 6l-18-11a4 4 0 0 1-2-3V38a4 4 0 0 1 4-4z"/>
  </g>
  <text x="64" y="116" font-family="Roboto, Arial" font-size="18" text-anchor="middle" fill="#fff">1Hr</text>
</svg>

