<svg xmlns="http://www.w3.org/2000/svg" width="64" height="64" viewBox="0 0 64 64">
  <rect width="64" height="64" rx="12" fill="#232F3E"/>
  <path fill="#fff" d="M22 20c3-2 6-2.3 10-2.3s7 .3 10 2.3c2.7 3.9 4.2 8.3 4 13.4-2.6 2.2-5.4 3.3-8.2 3.8l-1.8-2.7c2.2-.6 4.2-1.6 6-3-2.2 1-4.6 1.6-7 1.8-1.2-1.2-2.3-1.8-3-1.8s-1.8.6-3 1.8c-2.4-.2-4.8-.8-7-1.8 1.8 1.4 3.8 2.4 6 3l-1.8 2.7c-2.8-.5-5.6-1.6-8.2-3.8-.2-5.1 1.3-9.5 4-13.4zm6.5 12.5a2.5 2.5 0 1 0 0-5 2.5 2.5 0 0 0 0 5zm7 0a2.5 2.5 0 1 0 0-5 2.5 2.5 0 0 0 0 5z"/>
</svg>

