<svg xmlns="http://www.w3.org/2000/svg" width="64" height="64" viewBox="0 0 64 64">
  <rect width="64" height="64" rx="12" fill="#232F3E"/>
  <path fill="#fff" d="M32 12c-11 0-20 9-20 20 0 8.8 5.7 16.3 13.6 18.9 1 .2 1.4-.4 1.4-1v-3.6c-5.5 1.2-6.6-2.4-6.6-2.4-.9-2.3-2.2-3-2.2-3-1.8-1.3.1-1.3.1-1.3 2 .2 3.1 2.1 3.1 2.1 1.8 3.1 4.8 2.2 6 .9.2-1.3.7-2.2 1.2-2.7-4.4-.5-9-2.2-9-9.8 0-2.2.8-4.1 2.1-5.6-.2-.5-.9-2.5.2-5.1 0 0 1.7-.5 5.7 2.1 1.6-.5 3.3-.7 5-.7s3.4.2 5 .7c4-2.6 5.7-2.1 5.7-2.1 1.1 2.6.4 4.6.2 5.1 1.3 1.5 2.1 3.4 2.1 5.6 0 7.6-4.6 9.2-9.1 9.7.7.6 1.3 1.9 1.3 3.9V50c0 .6.4 1.2 1.4 1C46.3 48.3 52 40.8 52 32c0-11-9-20-20-20z"/>
</svg>

